<?xml version="1.0" encoding="UTF-8"?>
<svg width="240px" height="240px" viewBox="0 0 240 240" version="1.1" xmlns="http://www.w3.org/2000/svg" xmlns:xlink="http://www.w3.org/1999/xlink">
    <!-- Generator: sketchtool 59.1 (101010) - https://sketch.com -->
    <title>79CF3789-0D3A-481F-B810-28481A2C618B</title>
    <desc>Created with sketchtool.</desc>
    <defs>
        <linearGradient x1="17.2870695%" y1="31.5410036%" x2="100%" y2="44.8968066%" id="linearGradient-1">
            <stop stop-color="#FF0000" stop-opacity="0" offset="0%"></stop>
            <stop stop-color="#FF8A00" stop-opacity="0.5" offset="100%"></stop>
        </linearGradient>
        <path d="M136.8382,157.091 L136.8382,162.3942 L131.73,162.3942 L131.73,157.091 L136.8382,157.091 Z M33.4867,155.7941 L33.4867,158.3879 L30.9883,158.3879 L30.9883,155.7941 L33.4867,155.7941 Z M70.3994,143.9723 L70.3994,148.5894 L65.952,148.5894 L65.952,143.9723 L70.3994,143.9723 Z M163.8484,133.3645 L163.8484,142.2351 L155.304,142.2351 L155.304,133.3645 L163.8484,133.3645 Z M127.5309,23.5589 C131.3399,23.5589 134.9939,25.0719 137.6869,27.7659 C140.3809,30.4589 141.8939,34.1119 141.8939,37.9209 L141.8939,37.9209 L141.8939,126.0784 C141.8939,129.8876 140.3809,133.5408 137.6869,136.2344 C134.9939,138.9279 131.3399,140.4411 127.5309,140.4411 L127.5309,140.4411 L90.4689,140.4411 C86.6596,140.4411 83.0064,138.9279 80.3129,136.2344 C77.6193,133.5408 76.1061,129.8876 76.1061,126.0784 L76.1061,126.0784 L76.1059,56.8022 L76.1394,56.815 L77.3618,59.959 L80.1908,60.309 L80.5507,60.349 L80.7308,60.366 L80.9109,60.383 L81.0911,60.397 L81.2713,60.41 L81.4517,60.422 L81.6319,60.432 L81.8121,60.441 L81.9869,60.4472 L81.987,108.2897 C81.987,110.8866 83.0186,113.377 84.8548,115.2133 C86.691,117.0495 89.182,118.0811 91.778,118.0811 L126.222,118.0811 C128.818,118.0811 131.309,117.0495 133.145,115.2133 C134.981,113.377 136.013,110.8866 136.013,108.2897 L136.013,38.694 C136.013,36.098 134.981,33.607 133.145,31.771 C131.309,29.935 128.818,28.903 126.222,28.903 L99.0839,28.9022 L99.022,28.802 L98.938,28.667 L98.852,28.532 L98.766,28.398 L98.678,28.265 L98.653,28.227 L99.512,24.965 L98.0069,23.5582 Z M178.6434,132.0676 L178.6434,134.6614 L176.145,134.6614 L176.145,132.0676 L178.6434,132.0676 Z M109,122.4071 C105.67,122.4071 102.967,125.1103 102.967,128.44 C102.967,131.7697 105.67,134.473 109,134.473 C112.33,134.473 115.033,131.7697 115.033,128.44 C115.033,125.1103 112.33,122.4071 109,122.4071 Z M20.8854,87.571 C24.1966,87.369 27.5111,87.91 30.5867,89.153 L30.5867,89.153 L30.7466,92.747 C33.2868,94.014 35.5119,95.832 37.2592,98.069 L37.2592,98.069 L40.8131,97.511 C42.6436,100.277 43.8329,103.4178 44.2941,106.703 L44.2941,106.703 L41.2616,108.6384 C41.4345,111.4718 40.9721,114.308 39.9083,116.9398 L39.9083,116.9398 L42.1692,119.7382 C40.6885,122.7067 38.5633,125.307 35.9489,127.349 L35.9489,127.349 L32.7565,125.6905 C30.3891,127.2569 27.7017,128.2746 24.8907,128.6692 L24.8907,128.6692 L23.5976,132.0263 C20.2864,132.2283 16.9719,131.688 13.8963,130.4448 L13.8963,130.4448 L13.7364,126.8509 C11.1962,125.5839 8.9712,123.7654 7.2239,121.5282 L7.2239,121.5282 L3.67,122.087 C1.8395,119.3204 0.6501,116.1798 0.1889,112.8947 L0.1889,112.8947 L3.2215,110.9592 C3.0486,108.1258 3.511,105.2896 4.5747,102.6578 L4.5747,102.6578 L2.3139,99.859 C3.7946,96.891 5.9197,94.291 8.5342,92.249 L8.5342,92.249 L11.7266,93.907 C14.0939,92.341 16.7813,91.323 19.5924,90.928 L19.5924,90.928 Z M64.1368,122.9214 L64.1368,131.792 L55.5924,131.792 L55.5924,122.9214 L64.1368,122.9214 Z M23.0916,104.584 C20.2135,104.1148 17.4959,106.0706 17.0267,108.9487 C16.5576,111.8268 18.5133,114.5444 21.3914,115.0136 C24.2696,115.4828 26.9871,113.527 27.4563,110.6489 C27.9255,107.7708 25.9698,105.0532 23.0916,104.584 Z M126.42,100.0454 L126.42,110.4272 L116.42,110.4272 L116.42,100.0454 L126.42,100.0454 Z M157.5263,106.6085 L157.5263,110.4272 L153.848,110.4272 L153.848,106.6085 L157.5263,106.6085 Z M114.717,100.0454 L114.717,110.4272 L104.717,110.4272 L104.717,100.0454 L114.717,100.0454 Z M114.7173,94.6713 L114.7173,98.49 L111.039,98.49 L111.039,94.6713 L114.7173,94.6713 Z M126.42,88.1082 L126.42,98.49 L116.42,98.49 L116.42,88.1082 L126.42,88.1082 Z M178.6992,90.5278 L178.6992,95.831 L173.591,95.831 L173.591,90.5278 L178.6992,90.5278 Z M33.4817,25.52 C37.1509,24.902 40.8976,24.902 44.5668,25.52 L44.5668,25.52 L45.4161,30.596 C48.5192,31.309 51.4813,32.536 54.1796,34.226 L54.1796,34.226 L58.3691,31.237 C61.4007,33.395 64.05,36.044 66.2074,39.076 L66.2074,39.076 L63.2191,43.265 C64.9092,45.963 66.1361,48.926 66.849,52.029 L66.849,52.029 L71.9246,52.878 C72.5427,56.547 72.5427,60.294 71.9246,63.963 L71.9246,63.963 L66.849,64.812 C66.1361,67.916 64.9092,70.878 63.2191,73.576 L63.2191,73.576 L66.2074,77.765 C64.05,80.797 61.4007,83.446 58.3691,85.604 L58.3691,85.604 L54.1796,82.615 C51.4813,84.306 48.5192,85.532 45.4161,86.245 L45.4161,86.245 L44.5668,91.321 C40.8976,91.939 37.1509,91.939 33.4817,91.321 L33.4817,91.321 L32.6324,86.245 C29.5292,85.532 26.5672,84.306 23.8689,82.615 L23.8689,82.615 L19.6794,85.604 C16.6478,83.446 13.9985,80.797 11.841,77.765 L11.841,77.765 L14.8294,73.576 C13.1392,70.878 11.9123,67.916 11.1995,64.812 L11.1995,64.812 L6.1239,63.963 C5.5058,60.294 5.5058,56.547 6.1239,52.878 L6.1239,52.878 L11.1995,52.029 C11.9123,48.926 13.1392,45.963 14.8294,43.265 L14.8294,43.265 L11.841,39.076 C13.9985,36.044 16.6478,33.395 19.6794,31.237 L19.6794,31.237 L23.8689,34.226 C26.5672,32.536 29.5292,31.309 32.6324,30.596 L32.6324,30.596 Z M215.8089,57.0317 L215.8089,72.379 L201.026,72.379 L201.026,57.0317 L215.8089,57.0317 Z M39.0242,45.4 C31.838,45.4 26.0037,51.234 26.0037,58.421 C26.0037,65.607 31.838,71.441 39.0242,71.441 C46.2105,71.441 52.0448,65.607 52.0448,58.421 C52.0448,51.234 46.2105,45.4 39.0242,45.4 Z M123.9732,62.0538 L123.9732,67.357 L118.865,67.357 L118.865,62.0538 L123.9732,62.0538 Z M182.8645,42.0172 L182.8645,64.705 L161.011,64.705 L161.011,42.0172 L182.8645,42.0172 Z M86.5079,22.184 C89.495,22.857 92.247,24.319 94.476,26.419 L94.476,26.419 L93.741,29.206 C95.471,31.174 96.64,33.57 97.127,36.145 L97.127,36.145 L99.776,37.282 C100.059,40.33 99.519,43.399 98.21,46.168 L98.21,46.168 L95.333,46.331 C93.995,48.584 92.078,50.437 89.78,51.695 L89.78,51.695 L89.517,54.566 C86.705,55.777 83.6191,56.211 80.5819,55.823 L80.5819,55.823 L79.5376,53.136 C76.9814,52.561 74.6268,51.309 72.7197,49.513 L72.7197,49.513 L69.9088,50.15 C67.8875,47.85 66.521,45.049 65.952,42.041 L65.952,42.041 L68.1842,40.217 C67.9417,37.608 68.4044,34.982 69.5237,32.613 L69.5237,32.613 L68.049,30.137 C69.6119,27.504 71.8532,25.339 74.5387,23.868 L74.5387,23.868 L76.9626,25.427 C79.3689,24.391 82.0095,24.019 84.6084,24.352 L84.6084,24.352 Z M84.6556,35.282 C82.6786,34.231 80.2204,34.983 79.1696,36.96 C78.1188,38.937 78.8708,41.395 80.8478,42.446 C82.8248,43.497 85.283,42.745 86.3338,40.768 C87.3846,38.791 86.6327,36.332 84.6556,35.282 Z M163.848,10.0652 L163.848,20.447 L153.848,20.447 L153.848,10.0652 L163.848,10.0652 Z M110.9664,0.4332 L110.9664,3.027 L108.468,3.027 L108.468,0.4332 L110.9664,0.4332 Z" id="path-2"></path>
    </defs>
    <g id="Symbols" stroke="none" stroke-width="1" fill="none" fill-rule="evenodd">
        <g id="1">
            <g id="Page-1" transform="translate(11.000000, 38.000000)">
                <g id="Combined-Shape">
                    <use fill="#FFCB05" xlink:href="#path-2"></use>
                    <use fill="url(#linearGradient-1)" xlink:href="#path-2"></use>
                </g>
            </g>
        </g>
    </g>
</svg>