<?xml version="1.0" encoding="UTF-8"?>
<svg width="240px" height="240px" viewBox="0 0 240 240" version="1.1" xmlns="http://www.w3.org/2000/svg" xmlns:xlink="http://www.w3.org/1999/xlink">
    <!-- Generator: sketchtool 59.1 (101010) - https://sketch.com -->
    <title>4EFD23B6-50FB-4FEC-A87D-C697B785E952</title>
    <desc>Created with sketchtool.</desc>
    <defs>
        <linearGradient x1="17.2870695%" y1="35.5961839%" x2="100%" y2="46.017906%" id="linearGradient-1">
            <stop stop-color="#FF0000" stop-opacity="0" offset="0%"></stop>
            <stop stop-color="#FF8A00" stop-opacity="0.5" offset="100%"></stop>
        </linearGradient>
        <path d="M166.4,152.175201 L181.1829,152.175201 L181.1829,136.827901 L166.4,136.827901 L166.4,152.175201 Z M68.3999996,176.003401 L73.5081996,176.003401 L73.5081996,170.700201 L68.3999996,170.700201 L68.3999996,176.003401 Z M202.732,184.920201 L207.1794,184.920201 L207.1794,180.303101 L202.732,180.303101 L202.732,184.920201 Z M24.0763996,180.303001 L27.7546996,180.303001 L27.7546996,176.484301 L24.0763996,176.484301 L24.0763996,180.303001 Z M125.881,61.5110008 L138.462,61.5110008 C142.271,61.5110008 145.924,63.0240008 148.618,65.7180008 C151.311,68.4120008 152.825,72.0650008 152.825,75.8740008 L152.825,164.031001 C152.825,167.840201 151.311,171.493401 148.618,174.186901 C145.924,176.880401 142.271,178.393701 138.462,178.393701 L101.3997,178.393701 C97.5903996,178.393701 93.9372996,176.880401 91.2436996,174.186901 C88.5501996,171.493401 87.0369996,167.840201 87.0369996,164.031001 L87.0369996,103.540001 C88.9449996,104.212001 90.9170996,104.696001 92.9176996,104.985001 L92.9176996,146.242201 C92.9176996,148.839001 93.9492996,151.329501 95.7855996,153.165701 C97.6217996,155.002001 100.1123,156.033501 102.7091,156.033501 L137.152,156.033501 C139.749,156.033501 142.24,155.002001 144.076,153.165701 C145.912,151.329501 146.944,148.839001 146.944,146.242201 L146.944,76.6470008 C146.944,74.0500008 145.912,71.5600008 144.076,69.7230008 C142.24,67.8870008 139.749,66.8550008 137.152,66.8550008 L127.695,66.8550008 C127.254,65.0240008 126.646,63.2330008 125.881,61.5110008 Z M119.931,160.359501 C123.26,160.359501 125.964,163.062801 125.964,166.392501 C125.964,169.722101 123.26,172.425401 119.931,172.425401 C116.6011,172.425401 113.8978,169.722101 113.8978,166.392501 C113.8978,163.062801 116.6011,160.359501 119.931,160.359501 Z M40.3999996,150.715601 L48.9443996,150.715601 L48.9443996,141.845001 L40.3999996,141.845001 L40.3999996,150.715601 Z M207.179,144.040501 L212.2872,144.040501 L212.2872,138.737301 L207.179,138.737301 L207.179,144.040501 Z M134.574,118.335001 C134.574,116.682001 133.918,115.097001 132.749,113.928001 C131.58,112.759001 129.994,112.102001 128.341,112.102001 L111.5202,112.102001 C109.8671,112.102001 108.2818,112.759001 107.1129,113.928001 C105.944,115.097001 105.2873,116.682001 105.2874,118.335001 L105.2874,135.156101 C105.2873,136.809201 105.944,138.394501 107.1129,139.563401 C108.2818,140.732301 109.8671,141.388901 111.5202,141.388901 L128.341,141.388901 C129.994,141.388901 131.58,140.732301 132.749,139.563401 C133.918,138.394501 134.574,136.809201 134.574,135.156101 L134.574,118.335001 Z M120.7,136.827901 L129.7349,136.827901 L129.7349,127.448101 L120.7,127.448101 L120.7,136.827901 Z M110.1266,136.827901 L119.1615,136.827901 L119.1615,127.448101 L110.1266,127.448101 L110.1266,136.827901 Z M120.7,126.042901 L129.7349,126.042901 L129.7349,116.663101 L120.7,116.663101 L120.7,126.042901 Z M115.8382,126.042901 L119.1615,126.042901 L119.1615,122.592701 L115.8382,122.592701 L115.8382,126.042901 Z M201.937,97.8670008 C202.65,96.4660008 202.777,94.8390008 202.291,93.3450008 C201.804,91.8500008 200.744,90.6100008 199.343,89.8970008 C195.141,87.7580008 189.29,84.7810008 185.088,82.6420008 C183.687,81.9290008 182.06,81.8020008 180.565,82.2890008 C179.071,82.7750008 177.83,83.8350008 177.118,85.2360008 C174.979,89.4380008 172.001,95.2900008 169.863,99.4920008 C169.15,100.893001 169.023,102.519001 169.509,104.014001 C169.996,105.509001 171.056,106.749001 172.457,107.462001 C176.659,109.600001 182.51,112.578001 186.712,114.716001 C188.113,115.429001 189.74,115.556001 191.235,115.070001 C192.729,114.584001 193.969,113.523001 194.682,112.122001 C196.821,107.920001 199.799,102.069001 201.937,97.8670008 Z M17.3999996,112.102001 L19.8983996,112.102001 L19.8983996,109.508201 L17.3999996,109.508201 L17.3999996,112.102001 Z M189.86,111.452001 L193.906,103.503001 L186.249,99.6060008 L182.204,107.556001 L189.86,111.452001 Z M180.9,106.892001 L184.945,98.9430008 L177.288,95.0460008 L173.243,102.995001 L180.9,106.892001 Z M194.512,102.312001 L198.557,94.3630008 L190.9,90.4670008 L186.855,98.4160008 L194.512,102.312001 Z M110.2627,52.8060008 L118.223,44.8450008 L122.597,49.2190008 L95.5152996,76.3010008 L95.5151996,76.3010008 L95.5151996,76.3010008 L88.6206996,69.4070008 L83.6709996,74.3560008 L95.5151996,86.2010008 L119.229,62.4870008 C120.934,65.8130008 121.897,69.5820008 121.897,73.5740008 C121.897,87.0160008 110.9838,97.9290008 97.5419996,97.9290008 C84.1001996,97.9290008 73.1871996,87.0160008 73.1871996,73.5740008 C73.1871996,60.1320008 84.1001996,49.2190008 97.5419996,49.2190008 C102.2027,49.2190008 106.5595,50.5310008 110.2627,52.8060008 Z M185.551,97.7520008 L187.039,94.8280008 L184.223,93.3950008 L182.735,96.3190008 L185.551,97.7520008 Z M49.3538996,67.4130008 C48.9039996,66.4500008 48.0896996,65.7050008 47.0902996,65.3420008 C46.0908996,64.9780008 44.9881996,65.0270008 44.0246996,65.4770008 C41.1348996,66.8270008 37.1105996,68.7060008 34.2207996,70.0560008 C33.2572996,70.5060008 32.5120996,71.3200008 32.1489996,72.3190008 C31.7858996,73.3190008 31.8346996,74.4220008 32.2845996,75.3850008 C33.6341996,78.2750008 35.5135996,82.2990008 36.8631996,85.1890008 C37.3131996,86.1520008 38.1273996,86.8980008 39.1267996,87.2610008 C40.1261996,87.6240008 41.2289996,87.5750008 42.1923996,87.1250008 C45.0822996,85.7760008 49.1064996,83.8960008 51.9963996,82.5470008 C52.9597996,82.0970008 53.7050996,81.2820008 54.0681996,80.2830008 C54.4312996,79.2840008 54.3824996,78.1810008 53.9324996,77.2170008 C52.5828996,74.3280008 50.7034996,70.3030008 49.3538996,67.4130008 Z M45.4045996,82.3870008 L42.8514996,76.9200008 L37.5855996,79.3790008 L40.1387996,84.8460008 L45.4045996,82.3870008 Z M51.5670996,79.5090008 L49.0139996,74.0420008 L43.7480996,76.5010008 L46.3011996,81.9680008 L51.5670996,79.5090008 Z M42.4689996,76.1010008 L41.5298996,74.0900008 L39.5929996,74.9950008 L40.5320996,77.0060008 L42.4689996,76.1010008 Z M48.6314996,73.2230008 L46.0783996,67.7560008 L40.8124996,70.2150008 L43.3656996,75.6820008 L48.6314996,73.2230008 Z M223.4,107.003401 L228.5082,107.003401 L228.5082,101.700201 L223.4,101.700201 L223.4,107.003401 Z M169.4,69.0820008 L179.4,69.0820008 L179.4,58.7002008 L169.4,58.7002008 L169.4,69.0820008 Z M62.3999996,111.570801 L70.9443996,111.570801 L70.9443996,102.700201 L62.3999996,102.700201 L62.3999996,111.570801 Z M30.4735596,129.438801 L34.8983996,129.438801 L34.8983996,124.845001 L30.4735596,124.845001 L30.4735596,129.438801 Z" id="path-2"></path>
    </defs>
    <g id="Symbols" stroke="none" stroke-width="1" fill="none" fill-rule="evenodd">
        <g id="3">
            <g id="Page-1">
                <use fill="#FFCB05" xlink:href="#path-2"></use>
                <use fill="url(#linearGradient-1)" xlink:href="#path-2"></use>
            </g>
        </g>
    </g>
</svg>