<?xml version="1.0" encoding="UTF-8"?>
<svg width="240px" height="240px" viewBox="0 0 240 240" version="1.1" xmlns="http://www.w3.org/2000/svg" xmlns:xlink="http://www.w3.org/1999/xlink">
    <!-- Generator: sketchtool 59.1 (101010) - https://sketch.com -->
    <title>77F0E07F-DBB5-445B-97BF-0870949C7C06</title>
    <desc>Created with sketchtool.</desc>
    <defs>
        <linearGradient x1="18.0772898%" y1="17.2836181%" x2="98.7921897%" y2="40.9551949%" id="linearGradient-1">
            <stop stop-color="#FF0000" stop-opacity="0" offset="0%"></stop>
            <stop stop-color="#FF8A00" stop-opacity="0.5" offset="100%"></stop>
        </linearGradient>
        <path d="M59.9381,221.7308 L59.9381,227.034 L54.8299,227.034 L54.8299,221.7308 L59.9381,221.7308 Z M95.2314,198.983 C99.4666,198.983 102.905,202.4215 102.905,206.6567 C102.905,210.8919 99.4666,214.3303 95.2314,214.3303 C90.9962,214.3303 87.5577,210.8919 87.5577,206.6567 C87.5577,202.4215 90.9962,198.983 95.2314,198.983 Z M210.2544,206.6567 L210.2544,211.2738 L205.807,211.2738 L205.807,206.6567 L210.2544,206.6567 Z M192.735,189 L192.735,192.4272 C192.735,195.355 184.953,197.7319 175.368,197.7319 C165.782,197.7319 158,195.355 158,192.4272 L158,192.4272 L158,189 L158.094,189.0796 L158.19,189.1579 L158.287,189.2348 L158.387,189.3103 L158.488,189.3846 L158.591,189.4578 L158.696,189.5298 L158.803,189.6006 L158.911,189.6703 L159.021,189.7391 L159.133,189.807 L159.247,189.8738 L159.363,189.9396 L159.48,190.0046 L159.599,190.0687 L159.72,190.132 L159.967,190.2561 L160.093,190.3169 L160.221,190.377 L160.35,190.4363 L160.481,190.4948 L160.614,190.5526 L160.885,190.6661 L161.023,190.7217 L161.163,190.7767 L161.304,190.831 L161.592,190.9375 L161.739,190.9897 L161.887,191.0413 L162.036,191.0922 L162.188,191.1424 L162.341,191.192 L162.495,191.2409 L162.651,191.2892 L162.968,191.3837 L163.129,191.43 L163.291,191.4756 L163.455,191.5206 L163.621,191.5649 L163.788,191.6085 L164.126,191.6939 L164.298,191.7356 L164.471,191.7766 L164.645,191.8169 L164.998,191.8956 L165.177,191.9339 L165.538,192.0086 L165.721,192.0449 L165.905,192.0805 L166.091,192.1154 L166.278,192.1496 L166.466,192.1832 L166.656,192.216 L166.846,192.2481 L167.039,192.2796 L167.232,192.3103 L167.426,192.3403 L167.622,192.3696 L167.819,192.3982 L168.018,192.426 L168.217,192.4531 L168.418,192.4795 L168.62,192.5052 L168.823,192.5301 L169.027,192.5542 L169.232,192.5776 L169.438,192.6003 L169.646,192.6222 L169.854,192.6433 L170.064,192.6637 L170.274,192.6832 L170.486,192.702 L170.698,192.7201 L170.912,192.7373 L171.126,192.7537 L171.342,192.7694 L171.558,192.7842 L171.776,192.7983 L172.213,192.8239 L172.433,192.8355 L172.654,192.8462 L172.876,192.8562 L173.099,192.8653 L173.322,192.8735 L173.546,192.8809 L173.771,192.8875 L173.997,192.8932 L174.224,192.898 L174.451,192.902 L174.679,192.9051 L174.908,192.9073 L175.138,192.9086 L175.368,192.909 L175.598,192.9086 L175.827,192.9073 L176.056,192.9051 L176.284,192.902 L176.511,192.898 L176.738,192.8932 L176.964,192.8875 L177.189,192.8809 L177.413,192.8735 L177.637,192.8653 L177.859,192.8562 L178.081,192.8462 L178.302,192.8355 L178.522,192.8239 L178.741,192.8115 L178.96,192.7983 L179.177,192.7842 L179.393,192.7694 L179.824,192.7373 L180.037,192.7201 L180.25,192.702 L180.461,192.6832 L180.672,192.6637 L180.881,192.6433 L181.09,192.6222 L181.297,192.6003 L181.503,192.5776 L181.709,192.5542 L181.913,192.5301 L182.116,192.5052 L182.317,192.4795 L182.518,192.4531 L182.718,192.426 L182.916,192.3982 L183.113,192.3696 L183.309,192.3403 L183.503,192.3103 L183.697,192.2796 L183.889,192.2481 L184.08,192.216 L184.269,192.1832 L184.457,192.1496 L184.644,192.1154 L184.83,192.0805 L185.014,192.0449 L185.197,192.0086 L185.378,191.9716 L185.558,191.9339 L185.737,191.8956 L185.914,191.8566 L186.09,191.8169 L186.265,191.7766 L186.438,191.7356 L186.609,191.6939 L186.779,191.6516 L186.948,191.6085 L187.114,191.5649 L187.28,191.5206 L187.444,191.4756 L187.606,191.43 L187.767,191.3837 L187.926,191.3367 L188.084,191.2892 L188.24,191.2409 L188.395,191.192 L188.548,191.1424 L188.699,191.0922 L188.849,191.0413 L188.997,190.9897 L189.143,190.9375 L189.288,190.8846 L189.431,190.831 L189.712,190.7217 L189.85,190.6661 L189.986,190.6097 L190.121,190.5526 L190.254,190.4948 L190.385,190.4363 L190.515,190.377 L190.642,190.3169 L190.768,190.2561 L190.893,190.1944 L191.015,190.132 L191.136,190.0687 L191.255,190.0046 L191.373,189.9397 L191.488,189.8738 L191.602,189.807 L191.714,189.7391 L191.824,189.6703 L191.933,189.6006 L192.039,189.5298 L192.144,189.4578 L192.247,189.3847 L192.349,189.3103 L192.545,189.1579 L192.641,189.0796 L192.735,189 Z M45.0707,178.389 L45.0707,193.7363 L30.2878,193.7363 L30.2878,178.389 L45.0707,178.389 Z M192.735,183 L192.735,186.4272 C192.735,189.355 184.953,191.7319 175.368,191.7319 C165.782,191.7319 158,189.355 158,186.4272 L158,186.4272 L158,183 L158.094,183.0796 L158.19,183.1579 L158.287,183.2348 L158.387,183.3103 L158.488,183.3846 L158.591,183.4578 L158.696,183.5298 L158.803,183.6006 L158.911,183.6703 L159.021,183.7391 L159.133,183.807 L159.247,183.8738 L159.363,183.9396 L159.48,184.0046 L159.599,184.0687 L159.72,184.132 L159.967,184.2561 L160.093,184.3169 L160.221,184.377 L160.35,184.4363 L160.481,184.4948 L160.614,184.5526 L160.885,184.6661 L161.023,184.7217 L161.163,184.7767 L161.304,184.831 L161.592,184.9375 L161.739,184.9897 L161.887,185.0413 L162.036,185.0922 L162.188,185.1424 L162.341,185.192 L162.495,185.2409 L162.651,185.2892 L162.968,185.3837 L163.129,185.43 L163.291,185.4756 L163.455,185.5206 L163.621,185.5649 L163.788,185.6085 L164.126,185.6939 L164.298,185.7356 L164.471,185.7766 L164.645,185.8169 L164.998,185.8956 L165.177,185.9339 L165.538,186.0086 L165.721,186.0449 L165.905,186.0805 L166.091,186.1154 L166.278,186.1496 L166.466,186.1832 L166.656,186.216 L166.846,186.2481 L167.039,186.2796 L167.232,186.3103 L167.426,186.3403 L167.622,186.3696 L167.819,186.3982 L168.018,186.426 L168.217,186.4531 L168.418,186.4795 L168.62,186.5052 L168.823,186.5301 L169.027,186.5542 L169.232,186.5776 L169.438,186.6003 L169.646,186.6222 L169.854,186.6433 L170.064,186.6637 L170.274,186.6832 L170.486,186.702 L170.698,186.7201 L170.912,186.7373 L171.126,186.7537 L171.342,186.7694 L171.558,186.7842 L171.776,186.7983 L172.213,186.8239 L172.433,186.8355 L172.654,186.8462 L172.876,186.8562 L173.099,186.8653 L173.322,186.8735 L173.546,186.8809 L173.771,186.8875 L173.997,186.8932 L174.224,186.898 L174.451,186.902 L174.679,186.9051 L174.908,186.9073 L175.138,186.9086 L175.368,186.909 L175.598,186.9086 L175.827,186.9073 L176.056,186.9051 L176.284,186.902 L176.511,186.898 L176.738,186.8932 L176.964,186.8875 L177.189,186.8809 L177.413,186.8735 L177.637,186.8653 L177.859,186.8562 L178.081,186.8462 L178.302,186.8355 L178.522,186.8239 L178.741,186.8115 L178.96,186.7983 L179.177,186.7842 L179.393,186.7694 L179.824,186.7373 L180.037,186.7201 L180.25,186.702 L180.461,186.6832 L180.672,186.6637 L180.881,186.6433 L181.09,186.6222 L181.297,186.6003 L181.503,186.5776 L181.709,186.5542 L181.913,186.5301 L182.116,186.5052 L182.317,186.4795 L182.518,186.4531 L182.718,186.426 L182.916,186.3982 L183.113,186.3696 L183.309,186.3403 L183.503,186.3103 L183.697,186.2796 L183.889,186.2481 L184.08,186.216 L184.269,186.1832 L184.457,186.1496 L184.644,186.1154 L184.83,186.0805 L185.014,186.0449 L185.197,186.0086 L185.378,185.9716 L185.558,185.9339 L185.737,185.8956 L185.914,185.8566 L186.09,185.8169 L186.265,185.7766 L186.438,185.7356 L186.609,185.6939 L186.779,185.6516 L186.948,185.6085 L187.114,185.5649 L187.28,185.5206 L187.444,185.4756 L187.606,185.43 L187.767,185.3837 L187.926,185.3367 L188.084,185.2892 L188.24,185.2409 L188.395,185.192 L188.548,185.1424 L188.699,185.0922 L188.849,185.0413 L188.997,184.9897 L189.143,184.9375 L189.288,184.8846 L189.431,184.831 L189.712,184.7217 L189.85,184.6661 L189.986,184.6097 L190.121,184.5526 L190.254,184.4948 L190.385,184.4363 L190.515,184.377 L190.642,184.3169 L190.768,184.2561 L190.893,184.1944 L191.015,184.132 L191.136,184.0687 L191.255,184.0046 L191.373,183.9397 L191.488,183.8738 L191.602,183.807 L191.714,183.7391 L191.824,183.6703 L191.933,183.6006 L192.039,183.5298 L192.144,183.4578 L192.247,183.3847 L192.349,183.3103 L192.545,183.1579 L192.641,183.0796 L192.735,183 Z M192.735,177 L192.735,180.4272 C192.735,183.355 184.953,185.7319 175.368,185.7319 C165.782,185.7319 158,183.355 158,180.4272 L158,180.4272 L158,177 L158.094,177.0796 L158.19,177.1579 L158.287,177.2348 L158.387,177.3103 L158.488,177.3846 L158.591,177.4578 L158.696,177.5298 L158.803,177.6006 L158.911,177.6703 L159.021,177.7391 L159.133,177.807 L159.247,177.8738 L159.363,177.9396 L159.48,178.0046 L159.599,178.0687 L159.72,178.132 L159.967,178.2561 L160.093,178.3169 L160.221,178.377 L160.35,178.4363 L160.481,178.4948 L160.614,178.5526 L160.885,178.6661 L161.023,178.7217 L161.163,178.7767 L161.304,178.831 L161.592,178.9375 L161.739,178.9897 L161.887,179.0413 L162.036,179.0922 L162.188,179.1424 L162.341,179.192 L162.495,179.2409 L162.651,179.2892 L162.968,179.3837 L163.129,179.43 L163.291,179.4756 L163.455,179.5206 L163.621,179.5649 L163.788,179.6085 L164.126,179.6939 L164.298,179.7356 L164.471,179.7766 L164.645,179.8169 L164.998,179.8956 L165.177,179.9339 L165.538,180.0086 L165.721,180.0449 L165.905,180.0805 L166.091,180.1154 L166.278,180.1496 L166.466,180.1832 L166.656,180.216 L166.846,180.2481 L167.039,180.2796 L167.232,180.3103 L167.426,180.3403 L167.622,180.3696 L167.819,180.3982 L168.018,180.426 L168.217,180.4531 L168.418,180.4795 L168.62,180.5052 L168.823,180.5301 L169.027,180.5542 L169.232,180.5776 L169.438,180.6003 L169.646,180.6222 L169.854,180.6433 L170.064,180.6637 L170.274,180.6832 L170.486,180.702 L170.698,180.7201 L170.912,180.7373 L171.126,180.7537 L171.342,180.7694 L171.558,180.7842 L171.776,180.7983 L172.213,180.8239 L172.433,180.8355 L172.654,180.8462 L172.876,180.8562 L173.099,180.8653 L173.322,180.8735 L173.546,180.8809 L173.771,180.8875 L173.997,180.8932 L174.224,180.898 L174.451,180.902 L174.679,180.9051 L174.908,180.9073 L175.138,180.9086 L175.368,180.909 L175.598,180.9086 L175.827,180.9073 L176.056,180.9051 L176.284,180.902 L176.511,180.898 L176.738,180.8932 L176.964,180.8875 L177.189,180.8809 L177.413,180.8735 L177.637,180.8653 L177.859,180.8562 L178.081,180.8462 L178.302,180.8355 L178.522,180.8239 L178.741,180.8115 L178.96,180.7983 L179.177,180.7842 L179.393,180.7694 L179.824,180.7373 L180.037,180.7201 L180.25,180.702 L180.461,180.6832 L180.672,180.6637 L180.881,180.6433 L181.09,180.6222 L181.297,180.6003 L181.503,180.5776 L181.709,180.5542 L181.913,180.5301 L182.116,180.5052 L182.317,180.4795 L182.518,180.4531 L182.718,180.426 L182.916,180.3982 L183.113,180.3696 L183.309,180.3403 L183.503,180.3103 L183.697,180.2796 L183.889,180.2481 L184.08,180.216 L184.269,180.1832 L184.457,180.1496 L184.644,180.1154 L184.83,180.0805 L185.014,180.0449 L185.197,180.0086 L185.378,179.9716 L185.558,179.9339 L185.737,179.8956 L185.914,179.8566 L186.09,179.8169 L186.265,179.7766 L186.438,179.7356 L186.609,179.6939 L186.779,179.6516 L186.948,179.6085 L187.114,179.5649 L187.28,179.5206 L187.444,179.4756 L187.606,179.43 L187.767,179.3837 L187.926,179.3367 L188.084,179.2892 L188.24,179.2409 L188.395,179.192 L188.548,179.1424 L188.699,179.0922 L188.849,179.0413 L188.997,178.9897 L189.143,178.9375 L189.288,178.8846 L189.431,178.831 L189.712,178.7217 L189.85,178.6661 L189.986,178.6097 L190.121,178.5526 L190.254,178.4948 L190.385,178.4363 L190.515,178.377 L190.642,178.3169 L190.768,178.2561 L190.893,178.1944 L191.015,178.132 L191.136,178.0687 L191.255,178.0046 L191.373,177.9397 L191.488,177.8738 L191.602,177.807 L191.714,177.7391 L191.824,177.6703 L191.933,177.6006 L192.039,177.5298 L192.144,177.4578 L192.247,177.3847 L192.349,177.3103 L192.545,177.1579 L192.641,177.0796 L192.735,177 Z M175.368,169 C184.953,169 192.735,171.377 192.735,174.3047 C192.735,177.2325 184.953,179.6094 175.368,179.6094 C165.782,179.6094 158,177.2325 158,174.3047 C158,171.377 165.782,169 175.368,169 Z M138.53165,61.55875 C142.34065,61.55875 145.99365,63.07175 148.68765,65.76575 C151.38065,68.45875 152.89365,72.11275 152.89365,75.92175 L152.89365,75.92175 L152.89365,164.07855 C152.89365,167.88785 151.38065,171.54105 148.68765,174.23455 C145.99365,176.92805 142.34065,178.44125 138.53165,178.44125 L138.53165,178.44125 L101.46905,178.44125 C97.65975,178.44125 94.00655,176.92805 91.31305,174.23455 C88.61955,171.54105 87.10635,167.88785 87.10635,164.07855 L87.10635,164.07855 L87.106,137.4949 L92.987,137.4949 L92.98705,146.28975 C92.98705,148.88665 94.01865,151.37705 95.85495,153.21335 C97.69115,155.04955 100.18165,156.08115 102.77845,156.08115 L137.22165,156.08115 C139.81865,156.08115 142.30865,155.04955 144.14565,153.21335 C145.98165,151.37705 147.01365,148.88665 147.01365,146.28975 L147.01365,76.69475 C147.01365,74.09775 145.98165,71.60675 144.14565,69.77075 C142.30865,67.93475 139.81865,66.90275 137.22165,66.90275 L109.706,66.9019 L109.706,61.5579 Z M119.99965,160.40715 C116.67065,160.40715 113.96715,163.11045 113.96715,166.44005 C113.96715,169.76975 116.67065,172.47305 119.99965,172.47305 C123.32965,172.47305 126.03265,169.76975 126.03265,166.44005 C126.03265,163.11045 123.32965,160.40715 119.99965,160.40715 Z M68.5655,148.7972 L68.5655,157.6678 L60.0211,157.6678 L60.0211,148.7972 L68.5655,148.7972 Z M24.5444,144.3619 L24.5444,153.2325 L16,153.2325 L16,144.3619 L24.5444,144.3619 Z M137.871,138.0454 L137.871,148.4272 L127.871,148.4272 L127.871,138.0454 L137.871,138.0454 Z M126.168,138.0454 L126.168,148.4272 L116.168,148.4272 L116.168,138.0454 L126.168,138.0454 Z M188.2172,140.2125 L188.2172,145.5157 L183.109,145.5157 L183.109,140.2125 L188.2172,140.2125 Z M137.871,126.1082 L137.871,136.49 L127.871,136.49 L127.871,126.1082 L137.871,126.1082 Z M126.1683,132.6713 L126.1683,136.49 L122.49,136.49 L122.49,132.6713 L126.1683,132.6713 Z M105.2063,39.439 L105.2063,132.9951 L53.5656,132.9951 L53.5656,39.439 L105.2063,39.439 Z M224.358,120.2594 L224.358,130.6412 L214.358,130.6412 L214.358,120.2594 L224.358,120.2594 Z M100.0922,45.7602 L58.6797,45.7602 L58.6797,126.673 L100.0922,126.673 L100.0922,45.7602 Z M98.5922,47.2602 L98.5922,125.173 L60.1797,125.173 L60.1797,47.2602 L98.5922,47.2602 Z M81.6408,16.1129 L81.64,34.9389 L76.526,34.9389 L76.5267,22.434 L35.1142,22.434 L35.1142,103.347 L49.065,103.3469 L49.065,109.6689 L30.0001,109.669 L30.0001,16.1129 L81.6408,16.1129 Z M184.585,82.898 C191.411,82.898 196.954,88.44 196.954,95.267 C196.954,102.094 191.411,107.636 184.585,107.636 C177.758,107.636 172.216,102.094 172.216,95.267 C172.216,88.44 177.758,82.898 184.585,82.898 Z M75.0267,23.9342 L75.026,34.9389 L49.0656,34.939 L49.0650956,53.4143946 C46.1095352,55.5259334 44.1814,58.9849786 44.1814,62.891 C44.1814,66.7970214 46.1095352,70.2560666 49.0650956,72.3676054 L49.065,101.8469 L36.6142,101.847 L36.6142,23.9342 L75.0267,23.9342 Z M79.386,74.578 C72.9622,74.578 67.7469,79.793 67.7469,86.217 C67.7469,92.641 72.9622,97.856 79.386,97.856 C85.8097,97.856 91.025,92.641 91.025,86.217 C91.025,79.793 85.8097,74.578 79.386,74.578 Z M210.2542,53.6328 L210.2542,58.936 L205.146,58.936 L205.146,53.6328 L210.2542,53.6328 Z M175.2993,43.3063 L175.2993,47.125 L171.621,47.125 L171.621,43.3063 L175.2993,43.3063 Z M122.4174,40.7122 L122.4174,43.306 L119.919,43.306 L119.919,40.7122 L122.4174,40.7122 Z M218.432,27.076 C221.702,27.076 224.358,29.731 224.358,33.002 C224.358,36.272 221.702,38.928 218.432,38.928 C215.161,38.928 212.506,36.272 212.506,33.002 C212.506,29.731 215.161,27.076 218.432,27.076 Z M149.9414,24.4822 L149.9414,27.076 L147.443,27.076 L147.443,24.4822 L149.9414,24.4822 Z" id="path-2"></path>
    </defs>
    <g id="Symbols" stroke="none" stroke-width="1" fill="none" fill-rule="evenodd">
        <g id="2">
            <g id="Combined-Shape">
                <use fill="#FFCB05" xlink:href="#path-2"></use>
                <use fill="url(#linearGradient-1)" xlink:href="#path-2"></use>
            </g>
        </g>
    </g>
</svg>