<?xml version="1.0" encoding="UTF-8"?>
<svg width="607px" height="422px" viewBox="0 0 607 422" version="1.1" xmlns="http://www.w3.org/2000/svg" xmlns:xlink="http://www.w3.org/1999/xlink">
    <!-- Generator: sketchtool 59.1 (101010) - https://sketch.com -->
    <title>1C658283-ED0D-46B2-9C92-85DEB1AC294D</title>
    <desc>Created with sketchtool.</desc>
    <defs>
        <linearGradient x1="17.2870695%" y1="34.1870539%" x2="100%" y2="45.6283364%" id="linearGradient-1">
            <stop stop-color="#FF0000" stop-opacity="0" offset="0%"></stop>
            <stop stop-color="#FF8A00" stop-opacity="0.5" offset="100%"></stop>
        </linearGradient>
        <path d="M145,360 L145,422 L83,422 L83,360 L145,360 Z M267,315 L267,361 L221,361 L221,315 L267,315 Z M415,310 L415,320 L405,320 L405,310 L415,310 Z M325,282 L325,301 L306,301 L306,282 L325,282 Z M200,170 L200,282 L88,282 L88,170 L200,170 Z M476,199 L476,230 L445,230 L445,199 L476,199 Z M306,189 L306,226 L269,226 L269,189 L306,189 Z M394,170 L394,183 L381,183 L381,170 L394,170 Z M527,157 L527,170 L514,170 L514,157 L527,157 Z M136,0 L136,136 L0,136 L0,0 L136,0 Z M607,127 L607,136 L598,136 L598,127 L607,127 Z M453,107 L453,123 L437,123 L437,107 L453,107 Z M287,40 L287,115 L212,115 L212,40 L287,40 Z" id="path-2"></path>
    </defs>
    <g id="UI" stroke="none" stroke-width="1" fill="none" fill-rule="evenodd">
        <g id="D.00.00-Homepage" transform="translate(-36.000000, -157.000000)">
            <g id="Section-1" transform="translate(36.000000, 157.000000)">
                <g id="Shapes">
                    <use fill="#FFCB05" xlink:href="#path-2"></use>
                    <use fill="url(#linearGradient-1)" xlink:href="#path-2"></use>
                </g>
            </g>
        </g>
    </g>
</svg>